<?xml version="1.0" encoding="UTF-8"?>
<svg width="140px" height="140px" viewBox="0 0 140 140" version="1.1" xmlns="http://www.w3.org/2000/svg" xmlns:xlink="http://www.w3.org/1999/xlink">
    <!-- Generator: Sketch 51.1 (57501) - http://www.bohemiancoding.com/sketch -->
    <title>download_template</title>
    <desc>Created with Sketch.</desc>
    <defs></defs>
    <g id="外观设计界面" stroke="none" stroke-width="1" fill="none" fill-rule="evenodd">
        <g id="修改代理委托书" transform="translate(-410.000000, -335.000000)">
            <g id="身份ID" transform="translate(0.000000, 225.000000)">
                <g id="下载模板" transform="translate(410.000000, 110.000000)">
                    <rect id="download_template" stroke="#979797" fill="#F2F2F2" x="0.5" y="0.5" width="139" height="139"></rect>
                    <g id="压缩包" transform="translate(34.000000, 34.000000)" fill="#FFFFFF" fill-rule="nonzero">
                        <path d="M65.9912289,0 L46.0813276,0 L25.9187547,0 L6.00885342,0 C2.69085223,0 0,2.68994318 0,6.00983478 L0,65.9900828 C0,69.3101392 2.69085215,72 6.00885342,72 L65.9911466,72 C69.3090654,72 72,69.3101392 72,65.9900828 L72,6.00983478 C72.0000823,2.68994318 69.3091478,0 65.9912289,0 Z M44.5714286,35.3730211 L44.5714286,49.6898064 C44.5714286,50.6483097 43.8151107,51.4285714 42.8867239,51.4285714 L41.1797393,51.4285714 L41.1797394,43.3383372 C41.1797394,41.7769871 39.6681456,40.5122654 37.8030371,40.5122654 L34.1968828,40.5122654 C32.3318544,40.5122654 30.8201004,41.7769871 30.8201004,43.3383372 L30.8201004,51.4284887 L29.1132761,51.4284887 C28.1849694,51.4284887 27.4285714,50.648227 27.4285714,49.6897237 L27.4285714,35.3730211 C27.4285714,34.9617262 27.5685828,34.5838308 27.8009199,34.2857143 L44.1990801,34.2857143 C44.4314973,34.5838308 44.5714286,34.9617261 44.5714286,35.3730211 Z M34.2857143,52.0092757 C34.2976181,51.9430125 34.3052163,51.8754857 34.3052163,51.8060634 C34.3052163,51.7367201 34.2976181,51.6691933 34.2857143,51.6030091 L34.2857143,43.0257624 C34.3976605,42.9519963 34.6315994,42.8571429 34.9577293,42.8571429 L38.7564719,42.8571429 L38.7564719,42.8572218 C39.0827706,42.8572218 39.3166252,42.9520753 39.4285714,43.0258414 L39.4285714,58.1180425 C39.3166252,58.1918876 39.0827707,58.2857143 38.7564719,58.2857143 L34.9577293,58.2857143 C34.6315994,58.2857143 34.3976605,58.1918876 34.2857143,58.1180425 L34.2857143,52.0092757 Z M29.1428571,21.6939083 L36.0000434,21.6939083 L36.0000434,17.8911501 L29.1428571,17.8911501 L29.1428571,14.0883111 L36.0000434,14.0883111 L36.0000434,10.2857143 L42.8571429,10.2857143 L42.8571429,14.0883918 L36.0000434,14.0883918 L36.0000434,17.89115 L42.8571429,17.89115 L42.8571429,21.6939082 L36.0000434,21.6939082 L36.0000434,25.4966664 L42.8571429,25.4966664 L42.8571429,29.1428571 L36.0000434,29.1428571 L36.0000434,25.4966664 L29.1428571,25.4966664 L29.1428571,21.6939083 Z M42.8571429,6.6157293 L36.0000434,6.6157293 L36.0000434,10.2857143 L29.1428571,10.2857143 L29.1428571,6.61565139 L36.0000434,6.61565139 L36.0000434,3.42857143 L42.8571429,3.42857143 L42.8571429,6.6157293 Z M68.5714286,65.9950448 C68.5714286,67.4158532 67.415856,68.5714286 65.9959573,68.5714286 L6.00404265,68.5714286 C4.58422631,68.5714286 3.42857143,67.4158531 3.42857143,65.9950448 L3.42857143,6.00495521 C3.42857143,4.58414681 4.58414397,3.42857143 6.00404265,3.42857143 L25.9171377,3.42857143 L25.9171377,31.6725846 C25.1315725,32.4487616 24.643611,33.5255908 24.643611,34.7141969 L24.643611,48.978622 C24.643611,51.3382067 26.5633325,53.2569447 28.9219228,53.2569447 L30.6761624,53.2569447 L30.6761624,58.7414182 C30.6761624,60.2970671 32.2299952,61.5580767 34.1467513,61.5580767 L37.853084,61.5580767 C39.7699226,61.5580767 41.3235906,60.2969023 41.3235906,58.7414182 L41.3235906,53.2570271 L43.0779949,53.2570271 C45.4366676,53.2570271 47.3563068,51.3382891 47.3563068,48.9786221 L47.3563067,34.7141969 C47.3563067,33.5255909 46.8684275,32.448844 46.0828623,31.6725846 L46.0828623,3.42857143 L65.9959573,3.42857143 C67.4156913,3.42857143 68.5714286,4.58414689 68.5714286,6.00495521 L68.5714286,65.9950448 Z" id="Shape"></path>
                    </g>
                </g>
            </g>
        </g>
    </g>
</svg>