<?xml version="1.0" encoding="UTF-8"?>
<svg width="60px" height="60px" viewBox="0 0 60 60" version="1.1" xmlns="http://www.w3.org/2000/svg" xmlns:xlink="http://www.w3.org/1999/xlink">
    <!-- Generator: Sketch 51.3 (57544) - http://www.bohemiancoding.com/sketch -->
    <title>Rectangle 20 Copy 2</title>
    <desc>Created with Sketch.</desc>
    <defs></defs>
    <g id="Page-1" stroke="none" stroke-width="1" fill="none" fill-rule="evenodd">
        <g id="验证-验证码-copy" transform="translate(10.000000, 10.000000)" fill-rule="nonzero">
            <rect id="Rectangle-path" fill="#000000" opacity="0" x="0" y="0" width="40" height="40"></rect>
            <path d="M35.9866468,6.90657615 C35.8948737,6.89887527 26.6143165,5.93241463 20.1634307,1.21562468 C19.9684128,1.07315837 19.7428039,1 19.5018995,1 C19.2648189,1 19.0353861,1.07315837 18.8403682,1.21562468 C12.4238973,5.90546155 3.10892524,6.89887527 3.01715212,6.90657615 C2.43592234,6.96048232 2,7.4494883 2,8.03475529 C2,8.29273483 2.02294328,14.4187861 4.09548632,21.2956733 C5.32295185,25.3694397 7.01693076,28.857939 9.13918425,31.6610599 C11.827372,35.2150167 15.2000343,37.6677475 19.1577502,38.9460938 C19.2686428,38.9807478 19.3833592,39 19.5018995,39 C19.6204397,39 19.7351561,38.9807478 19.8422248,38.9460938 C23.8037646,37.6677475 27.172603,35.2188672 29.8607908,31.6610599 C31.9792204,28.8617894 33.6770232,25.3771405 34.9044887,21.2956733 C36.9732079,14.4187861 36.999975,8.29273483 36.999975,8.03475529 C37.0037989,7.4494883 36.5678766,6.96433276 35.9866468,6.90657615 Z M34.7247663,9.03201945 L34.7209425,9.09362651 C34.6100499,11.3307326 34.2085425,15.8087952 32.7554681,20.6410984 C30.20494,29.1159185 25.7539435,34.5065356 19.5248427,36.6627825 L19.5018995,36.6704833 L19.4789562,36.6627825 C13.2689748,34.5103861 8.82180219,29.1390212 6.26362637,20.6950046 C4.74172207,15.6701793 4.37462957,10.9071841 4.28285645,9.08977607 L4.27903257,9.02816901 L4.33639077,9.02046813 C7.03605016,8.62387273 13.9152106,7.29547067 19.4598368,3.53744047 L19.4942517,3.51048738 L19.5324905,3.53744047 C25.0847645,7.29547067 31.9639249,8.62387273 34.6635843,9.02431857 L34.7247663,9.03201945 Z M24.4652959,13.7988651 L17.7811534,22.6279258 L14.3779001,19.6977404 C14.1752344,19.5244706 13.9152106,19.4282095 13.6475389,19.4282095 C13.3186853,19.4282095 13.0051271,19.5706759 12.7909898,19.8248049 C12.3894824,20.2984092 12.4430167,21.0184416 12.9171778,21.4227379 L17.2266908,25.1345628 C17.4255325,25.3039822 17.7008519,25.4040936 17.9761713,25.4040936 C18.0105862,25.4040936 18.0450011,25.4040936 18.079416,25.4002432 C18.3853265,25.3694397 18.6682936,25.2077211 18.8556637,24.9612929 L26.2625196,15.1811734 C26.4460658,14.9385956 26.5225434,14.6421117 26.4804807,14.3417773 C26.4422419,14.0414429 26.2854628,13.7757625 26.0483823,13.5909413 C25.547454,13.2058973 24.8400362,13.3021583 24.4652959,13.7988651 Z" id="Shape" fill="#24A1F5"></path>
        </g>
        <rect id="Rectangle-20-Copy-2" x="0" y="0" width="60" height="60"></rect>
    </g>
</svg>