<?xml version="1.0" encoding="UTF-8"?>
<svg width="60px" height="60px" viewBox="0 0 60 60" version="1.1" xmlns="http://www.w3.org/2000/svg" xmlns:xlink="http://www.w3.org/1999/xlink">
    <!-- Generator: Sketch 51.3 (57544) - http://www.bohemiancoding.com/sketch -->
    <title>Rectangle 20</title>
    <desc>Created with Sketch.</desc>
    <defs></defs>
    <g id="Page-1" stroke="none" stroke-width="1" fill="none" fill-rule="evenodd">
        <g id="实名认证-1-输入真实姓名_复制-copy" transform="translate(13.000000, 12.000000)" fill="#24A1F5" fill-rule="nonzero">
            <path d="M16.9994081,20.1874249 C14.988872,20.1874249 12.9795011,19.3988651 11.4496086,17.8218054 C11.0035671,17.3620123 11.0035671,16.617168 11.4496086,16.1573749 C11.8956501,15.6975818 12.6182174,15.6975818 13.0642588,16.1573749 C15.2342327,18.3942499 18.7656902,18.3942499 20.9356641,16.1573749 C21.3817055,15.6975818 22.1042728,15.6975818 22.5503143,16.1573749 C22.9963557,16.617168 22.9963557,17.3620124 22.5503143,17.8218054 C21.0204219,19.3988651 19.0099441,20.1874249 16.9994081,20.1874249 Z M32.6374218,35.7966102 L1.36255935,35.7966102 C1.00459607,35.7966102 0.667836829,35.6242103 0.451544298,35.3299115 C0.236300344,35.0356728 0.166105757,34.655144 0.263096568,34.3000158 C1.61345398,29.3710965 4.79370561,25.6468146 9.73132671,23.2053536 C6.58899767,20.8351704 4.65209315,17.017753 4.65209315,12.9325783 C4.65209315,5.91390334 10.1918731,0.203389831 17.0005731,0.203389831 C23.8092731,0.203389831 29.3479462,5.91396337 29.3479462,12.9325783 C29.3479462,17.017813 27.4121485,20.8351704 24.2698194,23.2053536 C29.2074405,25.6456737 32.3876922,29.3699555 33.7369428,34.3000158 C33.8339336,34.655204 33.7636808,35.0356727 33.5473883,35.3299115 C33.3321443,35.6241503 32.9953851,35.7966102 32.6374218,35.7966102 Z M2.95489876,33.44246 L31.0461892,33.44246 C29.4638693,29.3676137 26.2100444,26.358272 21.3526956,24.4834908 C20.9222659,24.3179965 20.6301283,23.9018588 20.6123029,23.4282545 C20.5933125,22.9558512 20.8520713,22.5167149 21.2679961,22.3155517 C24.7894342,20.6108885 27.0642047,16.9279802 27.0642047,12.9324583 C27.0642047,7.21155631 22.5492074,2.55735994 17.0005148,2.55735994 C11.4507154,2.55735994 6.93571812,7.21155637 6.93571812,12.9324583 C6.93571812,16.9279802 9.2104887,20.6108885 12.7319268,22.3155517 C13.1478515,22.5167149 13.4065521,22.9557912 13.3876199,23.4282545 C13.3697946,23.9018588 13.0775987,24.3167955 12.6472272,24.4834908 C7.79104351,26.3594729 4.53721868,29.3687546 2.95489876,33.44246 Z" id="Shape"></path>
        </g>
        <rect id="Rectangle-20" x="0" y="0" width="60" height="60"></rect>
    </g>
</svg>