<?xml version="1.0" encoding="UTF-8"?>
<svg width="60px" height="60px" viewBox="0 0 60 60" version="1.1" xmlns="http://www.w3.org/2000/svg" xmlns:xlink="http://www.w3.org/1999/xlink">
    <!-- Generator: Sketch 51.3 (57544) - http://www.bohemiancoding.com/sketch -->
    <title>Rectangle 20 Copy</title>
    <desc>Created with Sketch.</desc>
    <defs></defs>
    <g id="Page-1" stroke="none" stroke-width="1" fill="none" fill-rule="evenodd">
        <g id="电话-copy" transform="translate(10.000000, 10.000000)" fill-rule="nonzero">
            <rect id="Rectangle-path" fill="#000000" opacity="0" x="0" y="0" width="40" height="40"></rect>
            <path d="M30.5263158,38.7368421 C17.8947368,38.7368421 0,19.1578947 0,8.42105262 C0,4.21052629 5.68421051,0 8.31578949,0 C11.3684211,0 16.631579,9.36842105 16.631579,11.0526316 C16.631579,12.3157895 16.1052632,13.2631579 15.5789474,14 C15.1578948,14.6315789 14.8421053,15.1578947 14.8421053,15.7894737 C14.9473685,17.1578947 20.9473685,23.2631579 22.4210527,23.4736842 C22.9473685,23.4736842 23.5789474,23.1578947 24.2105264,22.7368421 C25.1578948,22.2105263 26.2105264,21.6842105 27.4736843,21.6842105 C29.3684211,21.6842105 38.7368421,27.7894737 38.7368421,30.1052631 C38.7368421,34.8421053 34.2105263,38.7368421 30.5263158,38.7368421 Z M8.31578949,2.10526316 C6.73684211,2.10526316 2.10526316,5.47368422 2.10526316,8.42105262 C2.10526316,12.9473684 6.10526316,20 12.2105263,26.2105263 C18.5263158,32.6315789 25.5789474,36.6315789 30.5263158,36.6315789 C33.1578948,36.6315789 36.631579,33.5789473 36.7368421,30.4210526 C36,28.9473684 28.9473685,24 27.5789474,23.8947368 C26.8421053,23.8947368 26.1052632,24.3157894 25.3684211,24.7368421 C24.5263158,25.1578947 23.5789474,25.6842105 22.5263158,25.6842105 C20.2105263,25.6842105 12.9473684,18.2105263 12.9473684,15.8947368 C12.9473684,14.6315789 13.4736842,13.7894737 13.8947369,12.9473684 C14.3157895,12.3157895 14.631579,11.7894737 14.631579,11.0526316 C14.2105263,8.84210527 9.26315789,2.31578949 8.31578949,2.10526316 Z" id="Shape" fill="#24A1F5"></path>
        </g>
        <rect id="Rectangle-20-Copy" x="0" y="0" width="60" height="60"></rect>
    </g>
</svg>