<?xml version="1.0" encoding="UTF-8"?>
<svg width="110px" height="110px" viewBox="0 0 110 110" version="1.1" xmlns="http://www.w3.org/2000/svg" xmlns:xlink="http://www.w3.org/1999/xlink">
    <!-- Generator: Sketch 51.3 (57544) - http://www.bohemiancoding.com/sketch -->
    <title>Rectangle 21</title>
    <desc>Created with Sketch.</desc>
    <defs></defs>
    <g id="Page-1" stroke="none" stroke-width="1" fill="none" fill-rule="evenodd" opacity="0.701362">
        <g id="注册失败" transform="translate(4.000000, 15.000000)" fill-rule="nonzero">
            <path d="M83.9399101,11.0805655 C82.7239588,9.8655511 81.072059,9.18811476 79.3531446,9.19955453 L47.566644,9.19955453 C45.8486593,9.1896267 44.1981419,9.86759572 42.9831754,11.0822671 C41.7685203,12.2972009 41.0905516,13.9476791 41.1004629,15.6656294 L41.1004629,65.78526 C41.0905754,67.5032056 41.7685404,69.153675 42.9831754,70.3686223 C44.198142,71.5832936 45.8486593,72.2612626 47.566644,72.2513347 L79.3531446,72.2513347 C81.072072,72.2627344 82.7239696,71.5852607 83.9399101,70.3702174 C85.1559312,69.1553722 85.8347506,67.5041132 85.8247496,65.78526 L85.8247496,15.6656294 C85.8348029,13.9467347 85.1559777,12.2954233 83.9399101,11.0805655 Z" id="Shape" fill="#DFEFF7"></path>
            <path d="M45.886209,65.7851536 L45.886209,15.6656294 C45.8762978,13.9476791 46.5542664,12.2972009 47.7689216,11.0822671 C48.9839275,9.86758956 50.6344796,9.18962198 52.3524965,9.19944691 L47.5667504,9.19955453 C45.8487656,9.18962667 44.1982483,9.8675957 42.9832817,11.0822671 C41.7686266,12.2972009 41.090658,13.9476791 41.1005692,15.6656294 L41.1005692,65.78526 C41.0906817,67.5032056 41.7686467,69.153675 42.9832817,70.3686223 C44.1982483,71.5832936 45.8487656,72.2612626 47.5667504,72.2513347 L52.3524965,72.2514423 C50.6344842,72.2612436 48.9839409,71.5832796 47.7689216,70.3686223 C46.5542804,69.1536356 45.8763168,67.5031315 45.886209,65.7851536 Z" id="Shape" fill="#C7E6F9"></path>
            <path d="M19.672763,23.9066842 C19.6128881,23.2368924 19.0213698,22.7425781 18.3516844,22.802453 C18.0334079,22.8371076 17.7404887,22.9923392 17.5331091,23.2362544 C17.324917,23.4808703 17.2264676,23.800331 17.2608534,24.1197031 C17.2969508,24.4389308 17.4545373,24.7320159 17.7009293,24.938172 C17.9118869,25.1290502 18.1875103,25.2326085 18.4719661,25.2278692 L18.5683192,25.2278692 C19.2382172,25.1679942 19.7325317,24.576476 19.672763,23.9066842 Z M18.930866,24.8835082 C18.576065,25.0686474 18.144607,25.0213562 17.8383334,24.7637582 C17.63112,24.6020891 17.5044934,24.3582688 17.4914199,24.0957743 C17.4655307,23.8335728 17.5454328,23.5718906 17.7133722,23.3688727 C17.8755637,23.1613042 18.1200561,23.0345936 18.3831639,23.0217466 L18.4716471,23.0217466 C18.9841479,23.0171716 19.4136773,23.4081374 19.4571918,23.9188081 C19.493507,24.317332 19.285629,24.6983507 18.930866,24.8835082 Z M96.6577646,7.24271614 C96.5747053,6.31608932 95.7562364,5.6319403 94.8297159,5.7148932 C94.3893859,5.76275469 93.9841335,5.97752179 93.6973021,6.31502584 C93.409074,6.65340751 93.2727696,7.09547378 93.320398,7.53741168 C93.3704304,7.9791324 93.5885225,8.38466119 93.9294639,8.66993195 C94.2213364,8.93402676 94.6026969,9.07727932 94.9962599,9.07065842 L95.1297291,9.07065842 C96.0562495,8.98802455 96.7403985,8.16955562 96.6577646,7.24271614 Z M95.6311689,8.59431714 C95.1402578,8.85049031 94.5432746,8.78505484 94.1195112,8.428624 C93.8327019,8.20493284 93.6574286,7.86750752 93.6393413,7.50423052 C93.6034949,7.14138512 93.7141088,6.77925738 93.9465863,6.49837304 C94.1709769,6.21115635 94.5092728,6.03583573 94.8733194,6.01809687 L94.9958345,6.01809687 C95.704763,6.01171588 96.299259,6.55261154 96.3593467,7.25930672 C96.4097537,7.81079091 96.1221246,8.33811777 95.6311689,8.59431714 Z M8.45199621,5.7080868 C8.30757995,5.70791097 8.19055129,5.5908823 8.19037545,5.44646604 L8.19037545,3.75465161 L6.99553414,4.94949292 C6.89010191,5.04973715 6.72397623,5.04765396 6.62109086,4.94479744 C6.51820549,4.84194093 6.51607569,4.67581585 6.61629034,4.5703555 L7.8113444,3.37551418 L6.11655209,3.37551418 C5.97138744,3.37551418 5.85370825,3.25783499 5.85370825,3.11267034 C5.85370825,2.96750569 5.97138744,2.84982649 6.11655209,2.84982649 L7.8113444,2.84982649 L6.61629034,1.66923613 C6.56086179,1.62185462 6.52894717,1.55258746 6.52894717,1.47966742 C6.52894717,1.40674739 6.56086179,1.33748022 6.61629034,1.29009871 C6.66378238,1.23476934 6.7331021,1.20298485 6.80601861,1.20310445 C6.87886829,1.20310445 6.94778308,1.23469035 6.99553414,1.29009871 L8.19037545,2.4734542 L8.19037545,0.781427011 C8.16815438,0.677172584 8.21146142,0.569868414 8.29982257,0.510244026 C8.38818373,0.450619638 8.50389754,0.450619638 8.59225869,0.510244026 C8.68061985,0.569868414 8.72392689,0.677172584 8.70170582,0.781427011 L8.70170582,2.4734542 L9.90813924,1.27840022 C9.95565759,1.22316467 10.0248985,1.19139418 10.0977611,1.19139418 C10.1706237,1.19139418 10.2398647,1.22316467 10.287383,1.27840022 C10.3426842,1.32587978 10.3745027,1.39513507 10.3745027,1.46802212 C10.3745027,1.54090917 10.3426842,1.61016446 10.287383,1.65764402 L9.09232906,2.85280437 L10.7841435,2.85280437 C10.9292494,2.85280437 11.0468809,2.97043592 11.0468809,3.1155418 C11.0468809,3.26064767 10.9292494,3.37827922 10.7841435,3.37827922 L9.09232906,3.37827922 L10.287383,4.57343957 C10.355128,4.64086538 10.3813964,4.73966449 10.3567232,4.83218892 C10.3318716,4.92468297 10.2596738,4.99696176 10.1672077,5.02191719 C10.0746083,5.04660917 9.97586865,5.02005972 9.90813924,4.95225796 L8.70170582,3.75465161 L8.70170582,5.44646604 C8.73042029,5.59301623 8.58418915,5.70798051 8.4404041,5.70798051 L8.45199621,5.70798051 L8.45199621,5.7080868 Z M4.28148438,68.9102458 L3.55841129,68.9102458 L3.55841129,68.1870664 C3.55841129,68.0667846 3.46110115,67.9694745 3.34081936,67.9694745 C3.22053757,67.9694745 3.12322743,68.0667846 3.12322743,68.1870664 L3.12322743,68.9102458 L2.40015434,68.9102458 C2.27998163,68.9102458 2.18256241,69.007665 2.18256241,69.1278377 C2.18256241,69.2480104 2.27998163,69.3454297 2.40015434,69.3454297 L3.12322743,69.3454297 L3.12322743,70.0686091 C3.1232274,70.1260165 3.14604694,70.1810695 3.18666003,70.2216427 C3.22727312,70.2622159 3.28234853,70.2849813 3.33975588,70.2849248 L3.34198922,70.2755661 C3.46149471,70.2752735 3.55828385,70.1784369 3.55851766,70.0589312 L3.55851766,69.345536 L4.28159067,69.345536 C4.39991763,69.3428912 4.4944531,69.2461954 4.4944242,69.1278389 C4.4943953,69.0094824 4.39981262,68.9128329 4.28148438,68.9102458 Z M96.6646774,61.0898049 C96.6646774,62.5232954 95.6940217,63.6507108 94.4936502,63.6507108 C95.6975313,63.6507108 96.6646774,64.7973756 96.6646774,66.2116168 C96.6646774,64.7781263 97.6354394,63.6507108 98.8354918,63.6507108 C97.6315044,63.6507108 96.6646774,62.5041524 96.6646774,61.0898049 Z" id="Shape" fill="#CCCCCC"></path>
            <path d="M101.324399,78.1717281 L94.987752,78.1717281 C94.7723033,78.1718093 94.5731857,78.0569154 94.465438,77.8703449 C94.3576902,77.6837744 94.3576902,77.4538866 94.465438,77.2673161 C94.5731857,77.0807456 94.7723033,76.9658517 94.987752,76.9659329 L101.324399,76.9659329 C101.539848,76.9658517 101.738965,77.0807456 101.846713,77.2673161 C101.954461,77.4538866 101.954461,77.6837744 101.846713,77.8703449 C101.738965,78.0569154 101.539848,78.1718093 101.324399,78.1717281 Z M90.3792911,78.1717281 L6.08805036,78.1717281 C5.87260168,78.1718093 5.67348415,78.0569154 5.56573637,77.8703449 C5.45798859,77.6837744 5.45798859,77.4538866 5.56573637,77.2673161 C5.67348415,77.0807456 5.87260168,76.9658517 6.08805036,76.9659329 L90.3792911,76.9659329 C90.5947397,76.9658517 90.7938573,77.0807456 90.901605,77.2673161 C91.0093528,77.4538866 91.0093528,77.6837744 90.901605,77.8703449 C90.7938573,78.0569154 90.5947397,78.1718093 90.3792911,78.1717281 Z M3.34071299,78.1717281 L1.30230421,78.1717281 C1.08685553,78.1718093 0.887738004,78.0569154 0.779990225,77.8703449 C0.672242445,77.6837744 0.672242445,77.4538866 0.779990225,77.2673161 C0.887738004,77.0807456 1.08685553,76.9658517 1.30230421,76.9659329 L3.34071299,76.9659329 C3.55616167,76.9658517 3.75527919,77.0807456 3.86302697,77.2673161 C3.97077475,77.4538866 3.97077475,77.6837744 3.86302697,77.8703449 C3.75527919,78.0569154 3.55616167,78.1718093 3.34071299,78.1717281 Z" id="Shape" fill="#7ECAFC"></path>
            <path d="M79.3940894,72.8543388 L79.3492096,72.854126 L47.566644,72.854126 C45.7040316,72.8627404 43.8769401,72.1144624 42.5569249,70.794979 C41.2372289,69.4748576 40.4867175,67.6476596 40.4974588,65.781644 L40.4974588,15.6656294 C40.4866112,13.8032297 41.2372289,11.9760318 42.5567123,10.6560166 C43.8673686,9.34589197 45.6780822,8.59655048 47.5300597,8.59655048 L47.5700472,8.59665686 L79.3530382,8.59665686 L79.3979179,8.59655048 C81.2461731,8.59655048 83.0559296,9.34493486 84.3660542,10.6542087 C85.6869201,11.9737984 86.4383887,13.8017407 86.4275409,15.6692452 L86.4275409,24.952423 C86.4275409,25.2853942 86.1576144,25.5553207 85.8246433,25.5553207 C85.4916721,25.5553207 85.2217456,25.2853942 85.2217456,24.952423 L85.2217456,15.665842 C85.2306789,14.1150476 84.6081066,12.6006248 83.5136596,11.5073477 C82.4194253,10.4138578 80.9030882,9.79000927 79.3569732,9.80277125 L47.566644,9.80277125 C46.0176575,9.79117913 44.5031283,10.4156658 43.4094259,11.5089429 C42.3162551,12.6025391 41.6944271,14.1164301 41.7033606,15.6624388 L41.7033606,65.7854726 C41.6944272,67.3348845 42.3162551,68.8488819 43.4095322,69.9425844 C44.4952585,71.0278853 45.9956431,71.6487561 47.530166,71.6487561 L47.5632408,71.6486498 L79.353251,71.6486498 L79.3905798,71.6487561 C80.9290377,71.6487561 82.4284651,71.0286298 83.5138723,69.9440734 C84.6084256,68.85069 85.2309981,67.3362672 85.2220646,65.7890886 L85.2220646,39.0169865 C85.2220646,38.6840153 85.4919911,38.4140888 85.8249623,38.4140888 C86.1579335,38.4140888 86.42786,38.6840153 86.42786,39.0169865 L86.42786,65.7851536 C86.438814,67.6490422 85.6872392,69.4770909 84.3662669,70.7966806 C83.0562486,72.1057417 81.2461731,72.8542324 79.3940894,72.8543388 Z" id="Shape" fill="#7ECAFC"></path>
            <path d="M85.8247496,31.5904656 C85.4918028,31.5904068 85.2219107,31.3205148 85.221852,30.9875679 L85.221852,28.0363578 C85.221852,27.7033866 85.4917784,27.4334601 85.8247496,27.4334601 C86.1577208,27.4334601 86.4276473,27.7033866 86.4276473,28.0363578 L86.4276473,30.9875679 C86.4276473,31.1474663 86.3641279,31.3008157 86.2510627,31.4138809 C86.1379974,31.5269462 85.984648,31.5904656 85.8247496,31.5904656 Z" id="Shape" fill="#7ECAFC"></path>
            <path d="M72.2414195,18.5250595 C71.0254682,17.3100451 69.3735684,16.6326088 67.654654,16.6440485 L35.8681534,16.6440485 C34.1501687,16.6341207 32.4996513,17.3120897 31.2846848,18.5267611 C30.0700297,19.7416949 29.392061,21.3921731 29.4019723,23.1101234 L29.4019723,71.1027557 C29.3920848,72.8207013 30.0700498,74.4711707 31.2846848,75.686118 C32.4996513,76.9007893 34.1501687,77.5787584 35.8681534,77.5688305 L67.654654,77.5688305 C69.3735814,77.5802302 71.025479,76.9027565 72.2414195,75.6877132 C73.4574406,74.4728679 74.13626,72.8216089 74.126259,71.1027557 L74.126259,23.1101234 C74.1363123,21.3912287 73.4574871,19.7399173 72.2414195,18.5250595 Z" id="Shape" fill="#DFEFF7"></path>
            <path d="M72.2414195,18.5250595 C71.0254682,17.3100451 69.3735684,16.6326088 67.654654,16.6440485 L62.3371583,16.643906 C64.0560727,16.6326088 65.7079724,17.3100451 66.9239237,18.5250595 C68.139951,19.7399442 68.818769,21.391238 68.8087632,23.1101234 L68.8087632,71.1027557 C68.8188119,72.8216182 68.1399852,74.4728948 66.9239237,75.6877132 C65.7079832,76.9027565 64.0560857,77.5802302 62.3371583,77.5689721 L67.654654,77.5688305 C69.3735814,77.5802302 71.025479,76.9027565 72.2414195,75.6877132 C73.4574406,74.4728679 74.13626,72.8216089 74.126259,71.1027557 L74.126259,23.1101234 C74.1363123,21.3912287 73.4574871,19.7399173 72.2414195,18.5250595 Z" id="Shape" fill="#C7E6F9"></path>
            <path d="M67.6955987,78.1718345 L67.650719,78.1716218 L35.8681534,78.1716218 C34.0044775,78.1847028 32.1784495,77.4319582 30.8584343,76.1124747 C29.5387383,74.7923533 28.7882269,72.9651554 28.7989682,71.0991398 L28.7989682,69.3444726 C28.8051404,69.0159153 29.0732507,68.7527944 29.4018659,68.7527944 C29.7304811,68.7527944 29.9985914,69.0159153 30.0047636,69.3444726 L30.0047636,71.1026493 C29.9958302,72.6520612 30.6176581,74.1660586 31.7109353,75.2597612 C32.8045314,76.352932 34.3133176,76.9742281 35.8645376,76.9658265 L67.6545476,76.9658265 L67.6918765,76.9659329 C69.2303343,76.9659329 70.7297617,76.3459128 71.815169,75.2612501 C72.9097223,74.1678666 73.5322947,72.6534438 73.5233614,71.1062653 L73.5233614,23.1101234 C73.5322947,21.559329 72.9097224,20.0449061 71.8152754,18.951629 C70.7211475,17.8581392 69.206831,17.2397144 67.6585889,17.2469462 L35.8681534,17.2469462 C34.3162954,17.2379065 32.8046377,17.8597344 31.7109353,18.9531179 C30.6177645,20.0467141 29.9959365,21.5606051 30.00487,23.1066138 L30.00487,39.6374318 C29.9986977,39.9659891 29.7305875,40.22911 29.4019723,40.22911 C29.0733571,40.22911 28.8052468,39.9659891 28.7990746,39.6374318 L28.7990746,23.1101234 C28.7882269,21.2477237 29.5388446,19.4205258 30.858328,18.1005106 C32.1784495,16.7808145 34.0090506,16.0295587 35.8717694,16.0411509 L67.6547604,16.0411509 L67.69964,16.0410446 C69.5478952,16.0410446 71.3576517,16.7894289 72.6677763,18.0985964 C73.9886422,19.4181861 74.7401108,21.2461284 74.729263,23.113633 L74.729263,71.1027557 C74.740217,72.9666442 73.9886422,74.794693 72.6676699,76.1142827 C71.357758,77.4232375 69.5475761,78.1717281 67.6955987,78.1718345 Z" id="Shape" fill="#7ECAFC"></path>
            <path d="M8.45040103,55.2845884 C8.45040103,62.9297102 14.6479968,69.127306 22.2931186,69.127306 C29.9382404,69.127306 36.1358362,62.9297102 36.1358362,55.2845884 C36.1358363,50.3390617 33.4974293,45.7692065 29.2144775,43.2964431 C24.9315257,40.8236797 19.6547115,40.8236797 15.3717597,43.2964431 C11.088808,45.7692065 8.45040092,50.3390617 8.45040103,55.2845884 Z" id="Shape" fill="#7ECAFC"></path>
            <path d="M65.0506764,57.8189069 L42.3201901,57.8189069 C41.9872189,57.8189069 41.7172924,57.5489804 41.7172924,57.2160092 C41.7172924,56.883038 41.9872189,56.6131115 42.3201901,56.6131115 L65.0506764,56.6131115 C65.3836476,56.6131115 65.6535741,56.883038 65.6535741,57.2160092 C65.6535741,57.5489804 65.3836476,57.8189069 65.0506764,57.8189069 Z M65.0506764,49.879673 L42.3201901,49.879673 C42.1047414,49.8797542 41.9056238,49.7648603 41.7978761,49.5782898 C41.6901283,49.3917193 41.6901283,49.1618315 41.7978761,48.975261 C41.9056238,48.7886905 42.1047414,48.6737966 42.3201901,48.6738778 L65.0506764,48.6738778 C65.2661251,48.6737966 65.4652426,48.7886905 65.5729904,48.975261 C65.6807381,49.1618315 65.6807381,49.3917193 65.5729904,49.5782898 C65.4652426,49.7648603 65.2661251,49.8797542 65.0506764,49.879673 Z M65.0506764,41.9404392 L35.4321188,41.9404392 C35.2167242,41.9404393 35.0176914,41.8255276 34.9099941,41.6389904 C34.8022967,41.4524532 34.8022967,41.2226299 34.9099941,41.0360927 C35.0176914,40.8495555 35.2167242,40.7346439 35.4321188,40.7346439 L65.0506764,40.7346439 C65.266071,40.7346439 65.4651038,40.8495555 65.5728011,41.0360927 C65.6804985,41.2226299 65.6804985,41.4524532 65.5728011,41.6389904 C65.4651038,41.8255276 65.266071,41.9404393 65.0506764,41.9404392 Z M65.0506764,34.0012055 L35.4321188,34.0012055 C35.1035616,33.9950332 34.8404407,33.726923 34.8404407,33.3983078 C34.8404407,33.0696926 35.1035616,32.8015823 35.4321188,32.7954101 L65.0506764,32.7954101 C65.3792336,32.8015823 65.6423545,33.0696926 65.6423545,33.3983078 C65.6423545,33.726923 65.3792336,33.9950332 65.0506764,34.0012055 Z" id="Shape" fill="#7ECAFC"></path>
            <path d="M30.3438072,63.3350642 C29.9230869,63.7558909 29.2410649,63.7558909 28.8203446,63.3350642 L14.2424301,48.7573624 C13.8217098,48.3367486 13.8217098,47.6545139 14.2424301,47.2337935 C14.6631503,46.8133923 15.345066,46.8130733 15.7657862,47.2337935 L30.3437008,61.8118144 C30.764421,62.2325347 30.764421,62.9144504 30.3438072,63.3350642 Z" id="Shape" fill="#FFFFFF"></path>
            <path d="M14.2424301,63.3350642 C13.8217098,62.9144504 13.8216035,62.2325347 14.2424301,61.8118144 L28.8203446,47.2337935 C29.2410649,46.8130733 29.9230869,46.8133923 30.3437008,47.2337935 C30.764421,47.6545138 30.7645274,48.3364295 30.3437008,48.7573624 L15.7657862,63.3350642 C15.345066,63.7558909 14.6630439,63.7558909 14.2424301,63.3350642 Z" id="Shape" fill="#FFFFFF"></path>
        </g>
    </g>
</svg>